<svg width="200" height="65" viewBox="0 0 200 65" fill="none" xmlns="http://www.w3.org/2000/svg">
<path d="M13.425 36.0376L20.5724 18.7931H26.85L13.425 46.8154L0 18.7931H6.23978L13.425 36.0376Z" fill="white"/>
<path d="M33.3654 32.029C33.3654 33.7182 33.7184 35.2182 34.4243 36.5292C35.1302 37.8402 36.1008 38.8739 37.3362 39.6302C38.5715 40.3865 40.0086 40.7647 41.6473 40.7647C43.286 40.7647 44.7231 40.3865 45.9584 39.6302C47.1938 38.8739 48.1518 37.8402 48.8325 36.5292C49.5384 35.2182 49.8914 33.7182 49.8914 32.029C49.8914 30.3399 49.551 28.8398 48.8703 27.5288C48.1896 26.2178 47.2316 25.1842 45.9963 24.4278C44.7609 23.6715 43.3113 23.2933 41.6473 23.2933C40.0086 23.2933 38.5715 23.6715 37.3362 24.4278C36.1008 25.1842 35.1302 26.2178 34.4243 27.5288C33.7184 28.8398 33.3654 30.3399 33.3654 32.029ZM27.6551 32.029C27.6551 30.0121 28.008 28.1717 28.7139 26.5078C29.4199 24.8186 30.4031 23.3563 31.6637 22.121C32.9242 20.8856 34.3991 19.9402 36.0882 19.2847C37.8026 18.604 39.6556 18.2637 41.6473 18.2637C43.6642 18.2637 45.5172 18.604 47.2064 19.2847C48.8955 19.9402 50.3704 20.8856 51.631 22.121C52.9167 23.3563 53.9 24.8186 54.5807 26.5078C55.2866 28.1717 55.6396 30.0121 55.6396 32.029C55.6396 34.0207 55.2866 35.8737 54.5807 37.5881C53.9 39.2772 52.9293 40.7521 51.6688 42.0127C50.4334 43.2732 48.9586 44.2565 47.2442 44.9624C45.5551 45.6431 43.6894 45.9834 41.6473 45.9834C39.6052 45.9834 37.727 45.6431 36.0126 44.9624C34.3234 44.2565 32.8486 43.2732 31.588 42.0127C30.3275 40.7521 29.3568 39.2772 28.6761 37.5881C27.9954 35.8737 27.6551 34.0207 27.6551 32.029Z" fill="white"/>
<path d="M65.833 32.9366H71.5433L80.1656 45.2649H73.7745L65.833 32.9366ZM59.8201 18.7931H65.2279V45.2649H59.8201V18.7931ZM63.1102 23.4068V18.7931H68.7071C70.7996 18.7931 72.577 19.1461 74.0392 19.852C75.5015 20.5579 76.6234 21.5411 77.4049 22.8017C78.1865 24.0623 78.5773 25.5371 78.5773 27.2263C78.5773 28.8902 78.1865 30.3651 77.4049 31.6508C76.6234 32.9114 75.5015 33.8946 74.0392 34.6006C72.577 35.3065 70.7996 35.6594 68.7071 35.6594H63.1102V31.3483H68.3667C69.3247 31.3483 70.1441 31.197 70.8248 30.8945C71.5307 30.5668 72.0728 30.113 72.4509 29.5331C72.8291 28.928 73.0182 28.2095 73.0182 27.3775C73.0182 26.5456 72.8291 25.8397 72.4509 25.2598C72.0728 24.6547 71.5307 24.2009 70.8248 23.8984C70.1441 23.5706 69.3247 23.4068 68.3667 23.4068H63.1102Z" fill="white"/>
<path d="M80.6238 23.6715V18.7931H100.289V23.6715H93.1412V45.2649H87.7334V23.6715H80.6238Z" fill="white"/>
<path d="M106.84 45.2649V40.6891H120.19V45.2649H106.84ZM106.84 23.3689V18.7931H120.19V23.3689H106.84ZM106.84 33.4661V28.9658H119.433V33.4661H106.84ZM103.361 18.7931H108.58V45.2649H103.361V18.7931Z" fill="white"/>
<path d="M139.625 18.7931H146.243L138.113 31.613L146.81 45.2649H140.192L134.936 35.7729L129.49 45.2649H122.872L131.797 31.613L123.818 18.7931H130.436L134.974 27.1128L139.625 18.7931Z" fill="white"/>
<path d="M10.021 60.4426L9.68065 63.415H8.55371L9.3403 57.8559L11.5564 61.2746L13.7724 57.8559L14.559 63.415H13.4321L13.0917 60.4426L11.5564 62.9234L10.021 60.4426Z" fill="#4F8CBB"/>
<path d="M16.8599 63.415V62.4998H19.5298V63.415H16.8599ZM16.8599 59.0358V58.1206H19.5298V59.0358H16.8599ZM16.8599 61.0552V60.1552H19.3785V61.0552H16.8599ZM16.1641 58.1206H17.2078V63.415H16.1641V58.1206Z" fill="#4F8CBB"/>
<path d="M22.1765 58.1206L24.385 60.6166L22.063 63.415H20.7848L23.1219 60.6014L20.8983 58.1206H22.1765ZM24.1203 58.1206H25.2321V63.415H24.1203V58.1206ZM27.1002 58.1206H28.4163L26.1926 60.6014L28.5297 63.415H27.2137L24.9674 60.6166L27.1002 58.1206Z" fill="#4F8CBB"/>
<path d="M32.5108 59.898L31.2931 63.1881H30.0603L32.5108 57.8559L34.9613 63.1881H33.7285L32.5108 59.898ZM34.3714 63.415H30.6502V64.247H29.5989V62.4696H35.4227V64.247H34.3714V63.415Z" fill="#4F8CBB"/>
<path d="M41.1215 58.1206L38.6331 63.415H37.5062L38.2096 61.8191L36.4776 58.1206H37.7028L39.0189 61.4032L38.5121 61.3805L39.9794 58.1206H41.1215Z" fill="#4F8CBB"/>
<path d="M42.752 61.0855V60.1098H46.6396V61.0855H42.752ZM45.9513 58.1206H47.0329V63.415H45.9513V58.1206ZM42.3966 58.1206H43.4781V63.415H42.3966V58.1206Z" fill="#4F8CBB"/>
<path d="M49.6625 62.2124L49.7911 61.3578H52.3324L52.4609 62.2124H49.6625ZM51.0466 59.8375L50.2524 61.6603L50.2751 61.9023L49.5793 63.415H48.3616L51.0466 57.8105L53.7316 63.415H52.5063L51.8256 61.9477L51.8407 61.6754L51.0466 59.8375Z" fill="#4F8CBB"/>
<path d="M55.0623 58.1206H56.1438V63.415H55.0623V58.1206ZM55.7203 59.0358V58.1206H56.7716C57.1901 58.1206 57.5456 58.1887 57.838 58.3249C58.1355 58.461 58.3624 58.6551 58.5187 58.9072C58.675 59.1593 58.7532 59.4594 58.7532 59.8073C58.7532 60.1502 58.675 60.4502 58.5187 60.7073C58.3624 60.9594 58.1355 61.1536 57.838 61.2897C57.5456 61.4258 57.1901 61.4939 56.7716 61.4939H55.7203V60.5787H56.7716C57.059 60.5787 57.2859 60.5132 57.4523 60.3821C57.6187 60.251 57.7019 60.0594 57.7019 59.8073C57.7019 59.5501 57.6187 59.3585 57.4523 59.2325C57.2859 59.1014 57.059 59.0358 56.7716 59.0358H55.7203Z" fill="#4F8CBB"/>
<path d="M61.1858 60.7678C61.1858 61.1057 61.2564 61.4057 61.3976 61.6679C61.5388 61.9301 61.7329 62.1368 61.98 62.2881C62.227 62.4393 62.5144 62.515 62.8422 62.515C63.1699 62.515 63.4573 62.4393 63.7044 62.2881C63.9515 62.1368 64.1431 61.9301 64.2792 61.6679C64.4204 61.4057 64.491 61.1057 64.491 60.7678C64.491 60.43 64.4229 60.13 64.2868 59.8678C64.1507 59.6056 63.959 59.3989 63.712 59.2476C63.4649 59.0963 63.175 59.0207 62.8422 59.0207C62.5144 59.0207 62.227 59.0963 61.98 59.2476C61.7329 59.3989 61.5388 59.6056 61.3976 59.8678C61.2564 60.13 61.1858 60.43 61.1858 60.7678ZM60.0437 60.7678C60.0437 60.3644 60.1143 59.9964 60.2555 59.6636C60.3967 59.3257 60.5933 59.0333 60.8455 58.7862C61.0976 58.5392 61.3925 58.3501 61.7304 58.219C62.0732 58.0828 62.4439 58.0148 62.8422 58.0148C63.2456 58.0148 63.6162 58.0828 63.954 58.219C64.2918 58.3501 64.5868 58.5392 64.8389 58.7862C65.0961 59.0333 65.2927 59.3257 65.4289 59.6636C65.57 59.9964 65.6406 60.3644 65.6406 60.7678C65.6406 61.1662 65.57 61.5368 65.4289 61.8796C65.2927 62.2175 65.0986 62.5124 64.8465 62.7646C64.5994 63.0167 64.3044 63.2133 63.9616 63.3545C63.6237 63.4906 63.2506 63.5587 62.8422 63.5587C62.4338 63.5587 62.0581 63.4906 61.7152 63.3545C61.3774 63.2133 61.0824 63.0167 60.8303 62.7646C60.5782 62.5124 60.3841 62.2175 60.248 61.8796C60.1118 61.5368 60.0437 61.1662 60.0437 60.7678Z" fill="#4F8CBB"/>
<path d="M69.6437 59.898L68.426 63.1881H67.1932L69.6437 57.8559L72.0943 63.1881H70.8614L69.6437 59.898ZM71.5043 63.415H67.7831V64.247H66.7318V62.4696H72.5556V64.247H71.5043V63.415Z" fill="#4F8CBB"/>
<path d="M74.5862 61.0855V60.1098H78.4737V61.0855H74.5862ZM77.7855 58.1206H78.867V63.415H77.7855V58.1206ZM74.2307 58.1206H75.3122V63.415H74.2307V58.1206Z" fill="#4F8CBB"/>
<path d="M85.0514 58.1206H86.1481V63.415H85.0514V58.1206ZM80.763 58.1206H81.8445V63.415H80.763V58.1206ZM81.421 60.9569V60.0417H82.4723C82.8908 60.0417 83.2463 60.1098 83.5387 60.246C83.8362 60.3821 84.0631 60.5762 84.2194 60.8283C84.3757 61.0804 84.4539 61.3805 84.4539 61.7284C84.4539 62.0712 84.3757 62.3713 84.2194 62.6284C84.0631 62.8805 83.8362 63.0747 83.5387 63.2108C83.2463 63.3469 82.8908 63.415 82.4723 63.415H81.421V62.4998H82.4723C82.6639 62.4998 82.8278 62.4721 82.9639 62.4166C83.1051 62.3561 83.2135 62.2679 83.2891 62.1519C83.3648 62.036 83.4026 61.8948 83.4026 61.7284C83.4026 61.562 83.3648 61.4208 83.2891 61.3048C83.2135 61.1889 83.1051 61.1031 82.9639 61.0477C82.8278 60.9872 82.6639 60.9569 82.4723 60.9569H81.421Z" fill="#4F8CBB"/>
<path d="M88.7518 63.415V62.4998H91.4217V63.415H88.7518ZM88.7518 59.0358V58.1206H91.4217V59.0358H88.7518ZM88.7518 61.0552V60.1552H91.2704V61.0552H88.7518ZM88.056 58.1206H89.0997V63.415H88.056V58.1206Z" fill="#4F8CBB"/>
<path d="M99.6941 59.0963H97.3948V63.415H96.2981V58.1206H100.791V63.415H99.6941V59.0963Z" fill="#4F8CBB"/>
<path d="M107.105 58.1206V63.415H106.009V59.0963H104.073V61.3048C104.073 61.7485 104.007 62.1292 103.876 62.4469C103.75 62.7595 103.551 62.999 103.278 63.1654C103.006 63.3318 102.656 63.415 102.227 63.415V62.4998C102.348 62.4998 102.457 62.4721 102.552 62.4166C102.648 62.3612 102.729 62.2805 102.794 62.1746C102.86 62.0687 102.91 61.9427 102.946 61.7964C102.981 61.6502 102.999 61.4889 102.999 61.3124V58.1206H107.105Z" fill="#4F8CBB"/>
<path d="M109.778 62.2124L109.907 61.3578H112.448L112.576 62.2124H109.778ZM111.162 59.8375L110.368 61.6603L110.391 61.9023L109.695 63.415H108.477L111.162 57.8105L113.847 63.415H112.622L111.941 61.9477L111.956 61.6754L111.162 59.8375Z" fill="#4F8CBB"/>
<path d="M114.117 59.0963V58.1206H118.049V59.0963H116.62V63.415H115.538V59.0963H114.117Z" fill="#4F8CBB"/>
<path d="M120.116 63.415V62.4998H122.786V63.415H120.116ZM120.116 59.0358V58.1206H122.786V59.0358H120.116ZM120.116 61.0552V60.1552H122.635V61.0552H120.116ZM119.42 58.1206H120.464V63.415H119.42V58.1206Z" fill="#4F8CBB"/>
<path d="M125.433 58.1206L127.641 60.6166L125.319 63.415H124.041L126.378 60.6014L124.155 58.1206H125.433ZM127.377 58.1206H128.488V63.415H127.377V58.1206ZM130.357 58.1206H131.673L129.449 60.6014L131.786 63.415H130.47L128.224 60.6166L130.357 58.1206Z" fill="#4F8CBB"/>
<path d="M137.9 59.2627L133.128 63.6797L133.165 62.2729L137.938 57.8559L137.9 59.2627ZM134.171 58.1206V62.5528L133.128 63.6797V58.1206H134.171ZM137.938 57.8559V63.415H136.894V59.0131L137.938 57.8559Z" fill="#4F8CBB"/>
<path d="M162.625 37.8653C162.598 37.8849 162.572 37.9045 162.545 37.9241C162.413 38.0419 162.28 38.1597 162.148 38.2775C162.122 38.2971 162.095 38.3167 162.069 38.356C161.963 38.4541 161.857 38.5523 161.777 38.6504C161.751 38.6897 161.698 38.7289 161.671 38.7486C161.592 38.8467 161.486 38.9448 161.407 39.043C161.38 39.0626 161.354 39.1019 161.327 39.1215C161.221 39.2589 161.115 39.3767 161.009 39.5141C161.009 39.5337 160.983 39.5337 160.983 39.5533C160.904 39.6711 160.824 39.8085 160.745 39.9263C160.718 39.9655 160.692 40.0048 160.692 40.0244C160.612 40.1422 160.559 40.2403 160.506 40.3581C160.48 40.3974 160.48 40.417 160.453 40.4563C160.295 40.7311 160.189 41.0255 160.083 41.3199C160.083 41.3592 160.056 41.3788 160.056 41.4181C160.03 41.5359 159.977 41.6536 159.95 41.7714C159.95 41.8107 159.924 41.8303 159.924 41.8695C159.553 43.381 159.791 44.9905 160.718 46.502L193.844 35.235C199.14 33.4291 201.47 28.7771 199.034 24.8513L165.882 36.1183C165.696 36.1772 165.484 36.2557 165.299 36.3342C165.246 36.3538 165.193 36.3735 165.14 36.4127C165.008 36.4716 164.875 36.5305 164.743 36.5894C164.69 36.609 164.637 36.6483 164.584 36.6679C164.425 36.7464 164.293 36.8053 164.134 36.8838C164.108 36.9034 164.081 36.9034 164.055 36.9231C163.896 37.0212 163.71 37.0997 163.551 37.1979C163.499 37.2175 163.472 37.2568 163.419 37.2764C163.313 37.3549 163.181 37.4334 163.075 37.5119C163.022 37.5512 162.995 37.5708 162.942 37.6101C162.863 37.6886 162.731 37.7671 162.625 37.8653Z" fill="#1F4DC1"/>
<path d="M162.625 25.4199C162.598 25.4396 162.572 25.4592 162.545 25.4788C162.413 25.5966 162.28 25.7144 162.148 25.8321C162.122 25.8518 162.095 25.8714 162.069 25.9107C161.963 26.0088 161.857 26.107 161.777 26.2051C161.751 26.2444 161.698 26.2836 161.671 26.3032C161.592 26.4014 161.486 26.4995 161.407 26.5977C161.38 26.6173 161.354 26.6566 161.327 26.6762C161.221 26.8136 161.115 26.9314 161.009 27.0688C161.009 27.0884 160.983 27.0884 160.983 27.108C160.904 27.2258 160.824 27.3632 160.745 27.481C160.718 27.5202 160.692 27.5595 160.692 27.5791C160.612 27.6969 160.559 27.795 160.506 27.9128C160.48 27.9521 160.48 27.9717 160.453 28.011C160.295 28.2858 160.189 28.5802 160.083 28.8746C160.083 28.9139 160.056 28.9335 160.056 28.9728C160.03 29.0905 159.977 29.2083 159.95 29.3261C159.95 29.3653 159.924 29.385 159.924 29.4242C159.553 30.9357 159.791 32.5452 160.718 34.0566L193.844 22.8093C199.14 21.0035 201.47 16.3514 199.034 12.4256L165.882 23.6926C165.696 23.7515 165.484 23.83 165.299 23.9085C165.246 23.9282 165.193 23.9478 165.14 23.987C165.008 24.0459 164.875 24.1048 164.743 24.1637C164.69 24.1833 164.637 24.2226 164.584 24.2422C164.425 24.3207 164.293 24.3796 164.134 24.4581C164.108 24.4778 164.081 24.4778 164.055 24.4974C163.896 24.5955 163.71 24.674 163.551 24.7722C163.499 24.7918 163.472 24.8311 163.419 24.8507C163.313 24.9292 163.181 25.0077 163.075 25.0863C163.022 25.1255 162.995 25.1451 162.942 25.1844C162.863 25.2433 162.731 25.3414 162.625 25.4199Z" fill="#9DCD80"/>
<path d="M162.625 12.9942C162.598 13.0138 162.572 13.0334 162.545 13.053C162.413 13.1708 162.28 13.2886 162.148 13.4064C162.122 13.426 162.095 13.4456 162.069 13.4849C161.963 13.583 161.857 13.6812 161.777 13.7793C161.751 13.8186 161.698 13.8578 161.671 13.8775C161.592 13.9756 161.486 14.0737 161.407 14.1719C161.38 14.1915 161.354 14.2308 161.327 14.2504C161.221 14.3878 161.115 14.5056 161.009 14.643C161.009 14.6626 160.983 14.6626 160.983 14.6822C160.904 14.8 160.824 14.9374 160.745 15.0552C160.718 15.0944 160.692 15.1337 160.692 15.1533C160.612 15.2711 160.559 15.3693 160.506 15.487C160.48 15.5263 160.48 15.5459 160.453 15.5852C160.295 15.86 160.189 16.1544 160.083 16.4488C160.083 16.4881 160.056 16.5077 160.056 16.547C160.03 16.6648 159.977 16.7825 159.95 16.9003C159.95 16.9396 159.924 16.9592 159.924 16.9984C159.553 18.5099 159.791 20.1194 160.718 21.6309L193.844 10.3835C199.14 8.57767 201.47 3.92563 199.034 -0.000135477L165.882 11.2668C165.696 11.3257 165.484 11.4042 165.299 11.4827C165.246 11.5024 165.193 11.522 165.14 11.5613C165.008 11.6201 164.875 11.679 164.743 11.7379C164.69 11.7575 164.637 11.7968 164.584 11.8164C164.425 11.8949 164.293 11.9538 164.134 12.0323C164.108 12.052 164.081 12.052 164.055 12.0716C163.896 12.1698 163.71 12.2483 163.551 12.3464C163.499 12.366 163.472 12.4053 163.419 12.4249C163.313 12.5034 163.181 12.582 163.075 12.6605C163.022 12.6997 162.995 12.7194 162.942 12.7586C162.863 12.8175 162.731 12.9156 162.625 12.9942Z" fill="#19BB77"/>
</svg>
